:SAMPLES-PER-SECOND 24
:FULLY-SPECIFIED
:DEGREES
360
root  -0.067671 40.7988 23.0035 8.52054 -42.0977 0.850296
RightUpLeg  -13.1178 -3.92716 -7.19007
RightLeg  11.7919 0.501652 -0.642487
RightFoot  -2.5559 -0.665217 8.41747
RightToes  -2.08645e-008 3.77894e-005 6.81332e-007
Spine  -2.04533 -2.78278 -8.10299
Spine1  6.99925 -5.3161 11.4058
HEad  -39.4614 28.3107 -10.0136
LeftShoulder1  7.7781 -13.6205 -39.2568
LeftArm  7.50053 9.77995 -36.2322
LeftForeArm  170.099 -64.923 -159.042
LeftHand  -0.357381 -2.97778 5.19297
RightShoulder  4.27588 6.94224 35.0321
RightArm  7.694 -31.4274 32.4911
RightForeArm  153.3 72.0062 147.825
RightHand  -0.657048 8.4083 -5.89103
LeftUpLeg  -8.46151 9.50518 10.6324
LeftLeg  13.0775 1.15254 -0.00486592
LeftFoot  5.10353 2.7702 -19.2301
LeftToes  1.24767e-006 1.47042e-008 1.32732e-009
361
root  0.65163 41.6701 22.8064 10.1499 -42.4352 1.60991
RightUpLeg  -13.0931 -6.15763 -8.63562
RightLeg  6.64632 2.36985 -0.403724
RightFoot  2.65359 -1.80975 14.9473
RightToes  -2.08645e-008 3.77894e-005 6.81332e-007
Spine  -3.40874 -2.48857 -6.9431
Spine1  6.04297 -4.30484 9.1092
HEad  -39.2163 26.8236 -12.1322
LeftShoulder1  7.67919 -13.5621 -38.8534
LeftArm  11.2071 10.4715 -33.2359
LeftForeArm  169.966 -60.6492 -162.386
LeftHand  -0.189977 -3.16756 2.82069
RightShoulder  4.29132 7.03481 34.8216
RightArm  9.09218 -35.6821 30.3819
RightForeArm  157.636 68.7394 153.451
RightHand  -0.496684 8.21729 -4.60187
LeftUpLeg  -8.72457 9.26498 10.787
LeftLeg  7.93536 0.956868 -2.13658
LeftFoot  7.55911 3.6514 -21.9938
LeftToes  1.24767e-006 1.47042e-008 1.32732e-009
362
root  1.50335 42.006 22.4434 9.27728 -42.1697 2.13853
RightUpLeg  -13.5269 -4.36693 -10.2317
RightLeg  12.5916 1.52746 -0.313019
RightFoot  2.80558 -2.0697 16.7482
RightToes  -2.08645e-008 3.77894e-005 6.81332e-007
Spine  -1.89352 -2.33112 -7.11856
Spine1  5.64636 -4.15356 8.82784
HEad  -39.1109 27.0083 -14.1424
LeftShoulder1  7.42447 -13.2734 -38.1408
LeftArm  13.5703 8.61884 -31.0242
LeftForeArm  170.071 -57.7755 -164.216
LeftHand  -0.215612 -3.11611 3.17837
RightShoulder  4.17373 6.97785 33.9301
RightArm  12.6927 -34.9604 27.5934
RightForeArm  160.194 66.6578 156.241
RightHand  -0.323404 8.28855 -3.11943
LeftUpLeg  -8.71905 9.81935 10.1608
LeftLeg  10.3717 1.59393 -1.09386
LeftFoot  7.00993 3.07414 -19.1738
LeftToes  1.24767e-006 1.47042e-008 1.32732e-009
363
root  2.40386 41.6962 22.0405 7.80316 -41.5013 1.80101
RightUpLeg  -13.3889 -0.792856 -10.8997
RightLeg  23.1618 1.24033 0.385989
RightFoot  1.21601 -1.56713 14.2657
RightToes  -2.08645e-008 3.77894e-005 6.81332e-007
Spine  0.127941 -2.2275 -6.15084
Spine1  5.81673 -3.99353 7.71372
HEad  -37.3794 27.4453 -14.9555
LeftShoulder1  6.70112 -12.5437 -35.7148
LeftArm  14.5226 5.84102 -31.6337
LeftForeArm  171.474 -58.3466 -163.993
LeftHand  -0.250368 -3.07214 3.6721
RightShoulder  3.87729 6.69452 32.1271
RightArm  15.1371 -32.0121 27.4316
RightForeArm  159.715 67.7505 154.945
RightHand  -0.270111 8.42817 -2.64617
LeftUpLeg  -8.83303 10.6179 9.97367
LeftLeg  17.801 3.3698 1.39573
LeftFoot  9.83048 2.7909 -15.1859
LeftToes  1.24767e-006 1.47042e-008 1.32732e-009
364
root  3.16664 40.6628 21.7775 7.74832 -41.8207 1.00313
RightUpLeg  -12.8375 1.6606 -10.7042
RightLeg  29.7229 2.48385 1.3007
RightFoot  -4.81811 -0.74434 12.4377
RightToes  -2.08645e-008 3.77894e-005 6.81332e-007
Spine  -0.923561 -1.79921 -4.95104
Spine1  6.97504 -3.37519 6.50698
HEad  -34.0429 27.3585 -14.9568
LeftShoulder1  6.23033 -12.0905 -33.9477
LeftArm  13.5519 3.81774 -32.1154
LeftForeArm  170.835 -61.0554 -162.183
LeftHand  -0.218142 -3.08591 3.22457
RightShoulder  3.67428 6.54003 30.6809
RightArm  16.6374 -28.5992 27.2463
RightForeArm  156.122 71.0475 149.895
RightHand  -0.268353 8.84017 -2.57301
LeftUpLeg  -8.64057 8.72171 10.6542
LeftLeg  24.3148 5.35443 2.97746
LeftFoot  7.15707 2.80054 -17.3538
LeftToes  1.24767e-006 1.47042e-008 1.32732e-009
365
root  3.79788 39.2366 21.5889 7.90121 -42.1177 0.928959
RightUpLeg  -11.9205 2.29898 -10.9534
RightLeg  30.723 1.78555 0.912504
RightFoot  -15.235 0.238803 10.2597
RightToes  -2.08645e-008 3.77894e-005 6.81332e-007
Spine  -2.90162 -1.29361 -4.27613
Spine1  8.03457 -2.57078 5.02075
HEad  -31.7477 27.1003 -14.8636
LeftShoulder1  6.22603 -12.0029 -34.1447
LeftArm  12.4457 1.20026 -30.7653
LeftForeArm  168.635 -63.8269 -159.846
LeftHand  -0.305758 -2.84296 4.53981
RightShoulder  3.78607 6.66329 31.3444
RightArm  17.6492 -25.3126 25.3078
RightForeArm  150.351 73.8561 143.586
RightHand  -0.500688 8.85534 -4.45943
LeftUpLeg  -8.36 6.97909 10.7511
LeftLeg  27.913 3.60391 2.41502
LeftFoot  -5.47632 1.19999 -22.3458
LeftToes  1.24767e-006 1.47042e-008 1.32732e-009
366
root  4.45084 38.1485 21.3843 7.02951 -41.5156 1.40714
RightUpLeg  -11.7304 1.99155 -11.486
RightLeg  31.3288 -0.685919 -0.69806
RightFoot  -22.1456 0.625105 8.0753
RightToes  -2.08645e-008 3.77894e-005 6.81332e-007
Spine  -3.69907 -0.78434 -3.66706
Spine1  10.1103 -1.74476 3.35585
HEad  -34.0275 26.2006 -16.1426
LeftShoulder1  6.65306 -12.3634 -35.8888
LeftArm  11.0962 -1.1777 -29.5643
LeftForeArm  169.627 -66.2694 -157.699
LeftHand  -0.433246 -2.63622 6.4829
RightShoulder  3.80083 6.53276 31.9802
RightArm  16.2063 -23.1693 25.697
RightForeArm  147.325 75.5165 138.703
RightHand  -0.610072 8.70895 -5.39392
LeftUpLeg  -8.22101 5.28865 9.92579
LeftLeg  29.0088 2.65625 1.96518
LeftFoot  -15.9001 -0.77774 -22.319
LeftToes  1.24767e-006 1.47042e-008 1.32732e-009
